<?xml version="1.0" encoding="utf-8"?>
<!DOCTYPE svg PUBLIC "-//W3C//DTD SVG 1.0//EN" "http://www.w3.org/TR/2001/REC-SVG-20010904/DTD/svg10.dtd" [
	<!ENTITY ns_svg "http://www.w3.org/2000/svg">
	<!ENTITY ns_xlink "http://www.w3.org/1999/xlink">
]>
<svg  version="1.0" xmlns="&ns_svg;" xmlns:xlink="&ns_xlink;" width="480" height="600" viewBox="0 0 480 600"
	 overflow="visible" enable-background="new 0 0 480 600" xml:space="preserve">
<g id="graph">
	<path stroke="#000000" stroke-width="4" d="M233.026,241.45c-117.027,225.668,48.433,228.646,56.595,228.646
		c0,0,20.001-0.001,28.667-10.334c-41.667,53.001-101.333,52.334-101.333,52.334s-123.333-1.119-123.333-128
		c0-47.434,33.061-100.309,74.463-147.928"/>
	<path fill="#FFFFFF" stroke="#000000" stroke-width="4" d="M76.417,152.688L24.803,258.065c0,0,323.002-18.301,323.002,116.031
		c0,45.338-17.302,68.855-66.185,117.335c0,0,118.024-52.712,118.667-147.333C400.954,246.097,303.298,152.688,76.417,152.688z"/>
	<path stroke="#000000" stroke-width="4" d="M332.621,89.764c0,0-89,62-145,120c0,0,35,5,53,16
		C240.621,225.764,304.621,112.764,332.621,89.764z"/>
		
	<!-- linkes Blatt -->
	<path stroke="#000000" stroke-width="4" d="M140.621,27.764l155,73C295.621,100.764,237.621,188.764,140.621,27.764z"/>
	<path stroke="#000000" stroke-width="4" d="M142.621,18.764l156,73C298.621,91.764,258.621-40.236,142.621,18.764z"/>
	<!-- rechtes Blatt -->
	<path stroke="#000000" stroke-width="4" d="M316.621,106.764l157-10C473.621,96.764,424.621-10.236,316.621,106.764z"/>
	<path stroke="#000000" stroke-width="4" d="M305.621,115.764l163-9C468.621,106.764,337.621,222.764,305.621,115.764z"/>
</g>
</svg>
