<svg xmlns="http://www.w3.org/2000/svg" width="600" height="600" viewBox="0 0 600 600">
<g>
<path d="M 67.00 370.00 C67.00,305.76 66.69,281.00 65.90,281.00 C65.29,281.00 61.73,282.61 57.98,284.58 C50.62,288.45 40.35,297.11 38.07,301.37 C37.30,302.81 36.34,304.00 35.95,304.00 C35.56,304.00 34.01,302.38 32.50,300.41 L 29.76 296.82 L 36.13 290.64 C42.56,284.40 51.82,278.91 61.74,275.44 L 66.98 273.61 L 67.24 220.56 L 67.50 167.50 L 222.50 167.00 L 377.50 166.50 L 392.08 158.76 C405.53,151.63 413.76,147.83 426.33,142.99 L 431.15 141.13 L 430.46 145.24 C430.08,147.50 428.52,153.32 427.00,158.17 L 424.23 166.99 L 496.87 167.24 L 569.50 167.50 L 569.75 313.25 L 570.01 459.00 L 318.50 459.00 L 67.00 459.00 L 67.00 370.00 ZM 568.00 313.61 C568.00,186.38 567.83,170.15 566.48,169.63 C565.65,169.31 533.10,169.03 494.15,169.01 L 423.33 168.98 L 422.17 171.54 C421.52,172.94 421.00,174.30 421.00,174.55 C421.00,174.80 452.73,175.00 491.50,175.00 L 562.00 175.00 L 562.00 313.00 L 562.00 451.00 L 318.00 451.00 L 74.00 451.00 L 74.00 363.97 L 74.00 276.95 L 71.00 278.50 L 68.00 280.05 L 68.00 367.86 C68.00,416.15 68.30,455.97 68.67,456.33 C69.03,456.70 181.53,457.00 318.67,457.00 L 568.00 457.00 L 568.00 313.61 ZM 560.00 313.00 L 560.00 177.00 L 490.12 177.00 L 420.25 177.00 L 415.09 185.93 C399.46,213.02 379.28,231.62 350.50,245.48 C334.57,253.15 321.85,257.05 306.43,259.01 C298.54,260.01 294.00,261.67 294.00,263.55 C294.00,265.52 296.14,265.83 302.53,264.80 C305.81,264.28 313.03,264.00 318.56,264.19 C327.48,264.50 329.36,264.90 335.15,267.75 C344.51,272.36 349.67,278.45 364.98,302.93 C383.53,332.60 385.00,334.05 392.63,330.22 C399.71,326.67 401.52,330.58 395.32,336.02 C389.48,341.15 380.39,345.00 374.12,345.00 C364.04,345.00 361.51,342.16 337.50,303.88 C329.80,291.60 321.96,279.82 320.07,277.71 C314.89,271.90 309.79,269.66 301.50,269.57 L 294.50 269.50 L 294.23 295.06 C294.09,309.12 294.31,323.72 294.73,327.52 L 295.50 334.41 L 303.81 335.70 C312.84,337.10 316.00,338.33 316.00,340.43 C316.00,342.75 313.59,342.93 297.45,341.78 C285.77,340.94 277.56,340.95 265.18,341.81 C248.50,342.97 246.14,342.69 247.32,339.62 C247.98,337.88 252.99,336.36 261.16,335.41 C266.22,334.82 266.88,334.47 267.39,332.12 C268.43,327.41 269.36,271.00 268.41,271.04 C267.91,271.05 264.58,271.75 261.00,272.59 C256.86,273.56 246.79,274.32 233.25,274.69 L 212.00 275.26 L 212.00 282.57 C212.00,289.64 210.99,292.39 209.35,289.77 C208.91,289.07 208.08,285.35 207.50,281.50 L 206.44 274.50 L 201.47 273.23 C188.87,270.00 141.80,265.77 138.84,267.60 C137.22,268.60 138.26,332.66 139.91,334.31 C140.75,335.15 147.28,335.50 162.30,335.50 C185.24,335.50 192.55,334.49 206.66,329.39 L 213.82 326.80 L 215.02 318.39 C216.09,310.81 217.24,307.91 218.62,309.29 C218.90,309.56 219.20,319.97 219.31,332.42 C219.47,351.74 219.29,355.01 218.05,354.77 C217.25,354.62 216.10,352.47 215.50,350.00 L 214.41 345.50 L 207.46 344.09 C202.07,343.00 188.16,342.63 146.00,342.44 C97.91,342.24 91.46,342.03 91.19,340.67 C90.74,338.42 93.94,337.10 102.92,335.83 C108.51,335.04 111.11,334.22 111.58,333.10 C111.96,332.22 112.49,317.44 112.76,300.25 C113.24,270.17 113.19,269.00 111.38,269.00 C107.92,269.01 91.58,272.09 83.75,274.21 L 76.00 276.31 L 76.00 362.66 L 76.00 449.00 L 318.00 449.00 L 560.00 449.00 L 560.00 313.00 ZM 71.74 272.37 L 73.98 271.77 L 74.24 223.64 L 74.50 175.50 L 219.50 175.00 C361.42,174.51 364.57,174.46 367.75,172.53 C369.54,171.45 371.00,170.22 371.00,169.80 C371.00,169.37 302.94,169.13 219.75,169.26 L 68.50 169.50 L 68.24 221.25 C68.10,249.71 68.32,272.99 68.74,272.99 C69.16,272.98 70.51,272.70 71.74,272.37 ZM 262.50 269.85 L 268.50 268.50 L 268.77 247.32 C269.03,226.64 267.94,198.60 266.82,197.49 C266.52,197.18 263.39,196.48 259.88,195.93 C249.64,194.33 246.84,193.16 247.19,190.65 C247.44,188.94 248.11,188.54 250.50,188.70 C267.10,189.80 296.09,190.05 303.79,189.16 C313.43,188.05 316.00,188.33 316.00,190.48 C316.00,192.81 313.47,193.91 304.52,195.47 C299.64,196.32 295.39,197.27 295.08,197.59 C294.76,197.91 294.34,211.90 294.14,228.68 C293.81,257.31 293.89,259.17 295.53,258.84 C297.55,258.45 297.31,258.86 303.88,244.74 C315.08,220.66 334.67,196.57 354.70,182.23 C357.56,180.18 359.93,178.16 359.95,177.75 C359.98,177.34 328.10,177.00 289.11,177.00 L 218.22 177.00 L 217.50 189.97 C217.10,197.11 217.10,207.40 217.49,212.85 C217.93,219.07 217.83,222.99 217.21,223.37 C215.46,224.45 214.07,221.51 213.47,215.43 C212.44,205.13 212.79,205.62 204.28,202.69 C189.28,197.52 182.12,196.50 160.80,196.50 C147.02,196.50 140.75,196.85 139.92,197.68 C139.09,198.51 138.59,208.17 138.23,230.43 L 137.71 262.00 L 149.21 262.00 C172.22,262.00 204.14,258.01 206.07,254.89 C206.47,254.23 207.12,251.17 207.51,248.10 C208.31,241.66 209.62,238.65 211.20,239.62 C211.95,240.09 212.12,244.39 211.72,253.40 C211.40,260.61 211.40,267.79 211.71,269.36 L 212.27 272.21 L 234.39 271.70 C247.33,271.40 258.99,270.63 262.50,269.85 ZM 90.94 268.46 C95.59,267.64 102.45,266.69 106.19,266.35 L 113.00 265.71 L 112.87 239.11 C112.80,224.47 112.46,209.14 112.12,205.04 L 111.50 197.58 L 103.19 196.29 C93.85,194.85 90.74,193.57 91.19,191.35 C91.46,190.02 98.07,189.81 145.00,189.64 C206.84,189.42 212.46,188.92 213.53,183.61 C213.87,181.90 214.37,179.71 214.64,178.75 C215.11,177.10 211.34,177.00 145.57,177.00 L 76.00 177.00 L 76.00 224.12 L 76.00 271.25 L 79.25 270.59 C81.04,270.23 86.30,269.27 90.94,268.46 ZM 174.25 436.75 C169.22,433.23 170.04,430.69 175.42,433.14 C177.59,434.13 178.40,433.93 181.36,431.68 C184.81,429.04 193.42,418.31 195.22,414.39 C196.27,412.10 196.67,412.88 178.21,381.03 L 169.24 365.55 L 164.45 364.53 C154.82,362.46 158.66,361.50 176.50,361.50 C194.06,361.50 198.28,362.49 188.92,364.41 C186.49,364.91 184.35,365.43 184.17,365.57 C183.68,365.95 204.18,400.00 204.90,400.00 C206.72,400.00 215.37,382.03 217.63,373.56 C219.70,365.79 219.57,365.45 214.32,364.42 C205.01,362.59 208.56,361.44 223.50,361.44 C238.23,361.44 241.30,362.37 233.64,364.52 C229.59,365.66 229.08,366.33 220.30,382.39 C217.32,387.83 212.53,395.93 209.66,400.39 C206.79,404.85 201.08,413.79 196.97,420.26 C184.74,439.50 181.53,441.84 174.25,436.75 ZM 533.42 438.06 C530.39,436.79 527.23,432.70 517.86,417.90 C508.87,403.72 505.96,401.01 499.64,401.00 L 495.79 401.00 L 496.14 416.54 C496.54,433.61 496.43,433.33 503.14,434.41 C511.58,435.76 506.15,436.70 489.97,436.70 C478.15,436.70 473.04,436.37 473.29,435.62 C473.49,435.02 475.60,434.20 477.97,433.79 C480.34,433.39 482.53,432.81 482.83,432.50 C483.75,431.58 484.30,386.94 483.54,375.68 L 482.82 365.18 L 478.24 364.34 C475.72,363.88 473.50,363.02 473.31,362.43 C473.06,361.69 478.29,361.35 489.98,361.35 C499.34,361.35 507.00,361.70 507.00,362.13 C507.00,362.88 500.67,364.98 498.38,364.99 C497.77,365.00 496.98,366.69 496.64,368.75 C495.70,374.42 495.88,397.00 496.86,397.00 C497.82,397.00 518.53,374.38 522.51,368.98 L 525.07 365.52 L 521.03 364.18 C518.81,363.44 517.00,362.50 517.00,362.10 C517.00,361.70 524.21,361.36 533.03,361.34 C544.19,361.32 548.95,361.64 548.71,362.41 C548.51,363.01 546.06,363.95 543.26,364.50 C539.46,365.25 536.44,366.88 531.33,370.94 C523.20,377.41 499.00,398.07 499.00,398.53 C499.00,398.71 501.36,398.61 504.25,398.32 C510.73,397.65 516.95,399.25 520.93,402.59 C522.59,403.99 527.10,410.18 530.95,416.36 C540.67,431.93 541.95,433.17 546.01,431.00 C547.10,430.41 548.11,430.37 548.44,430.90 C549.08,431.94 542.52,437.99 540.72,438.01 C540.05,438.02 538.60,438.23 537.50,438.47 C536.40,438.72 534.56,438.53 533.42,438.06 ZM 91.00 436.02 C91.00,434.95 93.59,434.00 96.51,434.00 C102.00,434.00 102.05,433.67 101.76,398.17 L 101.50 365.51 L 96.57 364.47 C85.71,362.16 90.82,361.38 116.23,361.44 C143.98,361.51 149.00,360.98 149.00,358.01 C149.00,356.97 149.45,355.84 150.00,355.50 C150.65,355.10 151.00,359.32 151.00,367.44 C151.00,375.15 150.61,380.00 150.00,380.00 C149.45,380.00 148.99,378.54 148.99,376.75 C148.96,369.98 148.25,369.13 140.69,366.84 C134.15,364.85 117.05,363.59 115.68,365.00 C115.41,365.27 114.95,372.74 114.66,381.60 L 114.12 397.70 L 126.31 398.35 C141.16,399.14 148.81,400.86 153.54,404.46 C158.04,407.89 159.29,411.08 158.75,417.76 C158.20,424.63 154.40,429.50 146.46,433.50 L 140.50 436.50 L 115.75 436.67 C102.14,436.76 91.00,436.47 91.00,436.02 ZM 133.28 433.94 C141.83,431.56 146.90,423.48 145.54,414.39 C144.16,405.21 137.43,401.06 123.86,401.02 C117.04,401.00 115.09,401.32 114.63,402.52 C113.87,404.51 114.94,432.30 115.82,433.18 C116.50,433.86 120.93,434.55 126.50,434.83 C128.15,434.92 131.20,434.52 133.28,433.94 ZM 215.32 435.55 C215.51,434.97 217.88,434.14 220.58,433.70 L 225.50 432.90 L 230.69 421.20 C233.54,414.77 238.84,401.85 242.46,392.50 C253.72,363.46 255.47,359.50 257.00,359.50 C257.95,359.50 263.76,371.93 274.04,396.00 L 289.63 432.50 L 294.49 433.54 C304.28,435.63 300.54,436.65 283.02,436.68 C273.66,436.69 266.00,436.34 266.00,435.90 C266.00,435.11 272.32,433.02 274.75,433.01 C275.44,433.00 276.00,432.60 276.00,432.10 C276.00,431.61 271.95,421.46 267.00,409.55 C262.05,397.65 258.00,387.76 258.00,387.58 C258.00,387.40 256.84,384.62 255.41,381.40 C253.35,376.73 252.64,375.89 251.91,377.20 C247.88,384.39 235.00,425.66 235.00,431.36 C235.00,432.23 236.34,433.11 238.25,433.50 C249.39,435.74 246.93,436.67 229.98,436.64 C219.94,436.61 215.08,436.25 215.32,435.55 ZM 303.25 435.75 C303.48,435.06 305.70,434.13 308.19,433.67 L 312.71 432.84 L 313.36 423.76 C314.18,412.17 314.18,383.92 313.35,373.33 L 312.72 365.16 L 308.19 364.33 C305.70,363.87 303.48,362.94 303.25,362.25 C302.92,361.26 311.81,361.00 345.50,361.00 C378.93,361.00 388.08,361.27 387.75,362.24 C387.53,362.92 385.40,363.80 383.03,364.21 C380.66,364.61 378.51,365.16 378.24,365.43 C377.34,366.33 376.72,409.48 377.45,421.10 L 378.18 432.70 L 382.84 433.75 C388.81,435.10 396.85,433.90 398.75,431.38 C402.77,426.04 423.42,381.78 428.54,367.54 C430.31,362.61 432.18,358.44 432.70,358.27 C433.22,358.09 434.19,360.32 434.85,363.23 C436.46,370.22 444.33,391.70 452.54,411.50 C456.19,420.30 459.68,428.74 460.31,430.25 C461.14,432.28 462.34,433.14 464.97,433.58 C477.40,435.67 473.72,436.72 454.00,436.72 C444.10,436.72 436.00,436.38 436.00,435.97 C436.00,434.87 438.72,434.00 442.11,434.00 C447.01,434.00 446.95,431.84 441.67,417.75 L 439.51 412.00 L 426.35 412.00 L 413.19 412.00 L 411.17 418.75 C410.05,422.46 408.84,427.17 408.47,429.21 C407.74,433.23 407.15,432.78 415.50,434.52 C416.88,434.80 418.00,435.44 418.00,435.93 C418.00,436.43 403.99,436.87 386.00,436.93 C354.61,437.03 349.06,436.47 357.75,434.05 C359.81,433.48 362.02,433.01 362.66,433.01 C364.55,433.00 365.23,420.40 364.85,392.14 C364.56,370.20 364.26,365.77 363.00,364.97 C362.15,364.42 354.13,364.11 344.50,364.25 L 327.50 364.50 L 326.69 371.50 C325.79,379.30 326.15,431.49 327.11,432.45 C327.45,432.78 329.66,433.39 332.03,433.79 C334.40,434.20 336.53,435.08 336.75,435.76 C337.07,436.71 333.18,437.00 320.00,437.00 C306.71,437.00 302.93,436.72 303.25,435.75 ZM 438.01 409.25 C438.02,407.83 427.50,380.02 426.94,380.01 C426.30,380.00 415.00,407.40 415.00,408.96 C415.00,409.62 419.23,410.00 426.50,410.00 C432.83,410.00 438.00,409.66 438.01,409.25 ZM 455.49 343.98 C442.11,341.32 431.46,335.39 420.39,324.44 C413.76,317.89 411.47,314.77 408.13,307.76 C400.87,292.56 398.22,276.61 399.96,258.61 C402.14,236.13 409.17,220.60 423.53,206.55 C437.44,192.94 455.27,186.03 476.50,186.03 C504.05,186.03 525.80,197.67 538.88,219.40 C551.05,239.63 553.32,270.13 544.57,295.80 C536.15,320.51 515.42,338.76 490.33,343.56 C482.38,345.09 462.25,345.33 455.49,343.98 ZM 490.38 337.04 C499.16,333.64 508.74,323.84 513.96,312.91 C520.49,299.24 522.16,291.22 522.75,270.54 C523.48,244.68 521.05,230.63 513.24,215.68 C506.04,201.90 496.01,194.19 482.15,191.82 C454.99,187.16 433.75,206.99 427.47,242.88 C425.59,253.60 425.57,277.82 427.43,289.28 C431.65,315.25 443.76,332.90 461.29,338.60 C467.73,340.70 483.05,339.88 490.38,337.04 Z" fill="rgba(0,0,0,1)"/>
</g>
</svg>