<svg xmlns="http://www.w3.org/2000/svg" width="1024" height="1024" viewBox="0 0 1024 1024">
<g>
<path d="M 486.50 899.38 C462.14,897.44 438.24,893.56 416.50,888.01 C266.54,849.74 152.38,724.41 128.64,572.00 C125.18,549.76 124.51,539.90 124.54,511.50 C124.57,480.27 125.85,465.35 130.61,440.50 C137.70,403.51 148.78,371.21 166.12,337.00 C208.03,254.31 276.48,190.61 363.11,153.70 C394.38,140.37 434.07,130.25 472.50,125.80 C486.95,124.13 537.05,124.13 551.50,125.80 C590.22,130.29 629.52,140.29 660.66,153.59 C747.70,190.77 815.92,254.21 857.88,337.00 C879.34,379.33 891.83,420.48 897.66,468.00 C900.15,488.30 900.16,535.58 897.68,556.00 C881.65,687.78 802.41,800.36 684.12,859.42 C644.23,879.33 604.65,891.31 559.55,897.10 C544.10,899.08 500.07,900.46 486.50,899.38 ZM 510.00 895.00 C509.17,894.47 507.60,894.02 506.49,894.02 C505.39,894.01 496.18,891.94 486.03,889.43 C423.77,873.99 367.89,846.73 319.00,807.92 C305.33,797.07 278.53,770.32 267.98,757.00 C242.52,724.87 225.53,691.58 216.17,655.50 C191.99,562.36 218.35,462.00 288.91,378.52 C342.44,315.20 417.69,269.05 491.00,254.59 C504.01,252.03 521.51,250.00 530.67,250.00 L 536.00 250.00 L 536.00 215.00 L 536.00 180.00 L 540.81 180.00 C543.45,180.00 549.42,180.96 554.06,182.13 C620.05,198.78 735.05,294.44 766.03,358.44 C771.61,369.98 771.75,371.71 767.99,383.00 C751.44,432.75 703.25,484.31 638.63,521.43 C604.50,541.03 565.50,555.00 544.89,555.00 L 539.00 555.00 L 539.00 518.50 L 539.00 482.00 L 535.18 482.00 C528.70,482.00 513.05,485.05 501.30,488.60 C479.68,495.12 457.93,504.73 435.95,517.46 C372.74,554.09 327.43,602.88 311.42,651.56 L 307.69 662.90 L 311.03 670.56 C336.11,728.08 430.29,812.68 502.46,842.52 C513.15,846.93 528.56,851.00 534.61,851.00 L 538.97 851.00 L 539.24 817.75 L 539.50 784.50 L 544.50 784.26 C595.20,781.79 644.92,765.78 693.67,736.22 C798.22,672.81 867.17,565.81 871.65,460.00 C873.21,423.26 863.62,373.93 847.41,335.22 C841.79,321.81 829.46,297.96 823.65,289.25 C802.45,257.48 763.64,219.47 727.50,195.08 C661.73,150.70 590.66,128.76 512.50,128.74 C481.47,128.73 456.57,131.37 428.50,137.66 C287.87,169.17 175.27,278.83 140.12,418.50 C127.26,469.60 125.18,524.10 134.06,576.84 C147.74,658.02 189.51,735.30 250.21,791.75 C318.75,855.50 405.99,891.96 498.00,895.33 C502.12,895.48 506.85,895.69 508.50,895.79 C510.76,895.92 511.13,895.73 510.00,895.00 Z" fill="rgba(0,0,0,1)"/>
</g>
</svg>